<svg width="1767" height="1117" viewBox="0 0 1767 1117" fill="none" xmlns="http://www.w3.org/2000/svg">
<path opacity="0.6" d="M28.8561 990.987C52.8498 1023.64 88.8403 1040.82 136.828 1044.26C224.233 1051.13 273.934 1009.89 285.931 920.536C339.06 561.406 397.33 257.262 459.028 8.10498L834.357 724.647C868.634 789.943 911.48 824.31 962.895 827.746C1038.3 832.901 1084.58 784.788 1103.43 683.407C1146.27 454.87 1201.12 260.699 1266.24 95.7397C1310.8 532.194 1386.21 846.648 1492.47 1040.82C1518.18 1088.93 1555.88 1112.99 1605.58 1116.42C1645 1119.86 1680.99 1107.83 1713.55 1082.06C1746.12 1056.28 1763.25 1023.64 1766.68 984.114C1768.4 953.184 1763.25 927.409 1749.54 901.634C1682.7 777.915 1627.86 569.997 1583.3 281.319C1540.46 1.23157 1525.03 -216.995 1535.31 -373.363C1538.74 -416.321 1531.89 -454.124 1514.75 -486.773C1494.18 -524.576 1463.33 -545.196 1423.92 -548.632C1379.36 -552.069 1333.08 -531.449 1288.52 -485.054C1129.14 -321.813 1002.31 -77.8114 909.766 246.952C798.367 27.0065 716.103 -137.953 662.974 -247.925C561.858 -442.096 476.166 -541.759 404.186 -546.914C357.912 -550.351 318.494 -510.829 284.217 -428.35C196.812 -203.249 102.551 231.487 1.43496 875.859C-3.70654 920.536 4.86246 960.057 28.8561 990.987Z" fill="white" fill-opacity="0.35"/>
</svg>
