<svg width="1771" height="1674" viewBox="0 0 1771 1674" fill="none" xmlns="http://www.w3.org/2000/svg">
<g opacity="0.6" filter="url(#filter0_d_9_36)">
<path d="M32.8561 1539.99C56.8498 1572.64 92.8403 1589.82 140.828 1593.26C228.233 1600.13 277.934 1558.89 289.931 1469.54C343.06 1110.41 401.33 806.262 463.028 557.105L838.357 1273.65C872.634 1338.94 915.48 1373.31 966.895 1376.75C1042.3 1381.9 1088.58 1333.79 1107.43 1232.41C1150.27 1003.87 1205.12 809.699 1270.24 644.74C1314.8 1081.19 1390.21 1395.65 1496.47 1589.82C1522.18 1637.93 1559.88 1661.99 1609.58 1665.42C1649 1668.86 1684.99 1656.83 1717.55 1631.06C1750.12 1605.28 1767.25 1572.64 1770.68 1533.11C1772.4 1502.18 1767.25 1476.41 1753.54 1450.63C1686.7 1326.91 1631.86 1119 1587.3 830.319C1544.46 550.232 1529.03 332.005 1539.31 175.637C1542.74 132.679 1535.89 94.8756 1518.75 62.2274C1498.18 24.4243 1467.33 3.80432 1427.92 0.367676C1383.36 -3.06897 1337.08 17.5511 1292.52 63.9459C1133.14 227.187 1006.31 471.189 913.766 795.952C802.367 576.006 720.103 411.047 666.974 301.075C565.858 106.904 480.166 7.24109 408.186 2.08606C361.912 -1.35059 322.494 38.1708 288.217 120.65C200.812 345.751 106.551 780.487 5.43496 1424.86C0.29346 1469.54 8.86246 1509.06 32.8561 1539.99Z" fill="white" fill-opacity="0.35" shape-rendering="crispEdges"/>
</g>
<defs>
<filter id="filter0_d_9_36" x="0" y="0.00012207" width="1775" height="1674" filterUnits="userSpaceOnUse" color-interpolation-filters="sRGB">
<feFlood flood-opacity="0" result="BackgroundImageFix"/>
<feColorMatrix in="SourceAlpha" type="matrix" values="0 0 0 0 0 0 0 0 0 0 0 0 0 0 0 0 0 0 127 0" result="hardAlpha"/>
<feOffset dy="4"/>
<feGaussianBlur stdDeviation="2"/>
<feComposite in2="hardAlpha" operator="out"/>
<feColorMatrix type="matrix" values="0 0 0 0 0 0 0 0 0 0 0 0 0 0 0 0 0 0 0.25 0"/>
<feBlend mode="normal" in2="BackgroundImageFix" result="effect1_dropShadow_9_36"/>
<feBlend mode="normal" in="SourceGraphic" in2="effect1_dropShadow_9_36" result="shape"/>
</filter>
</defs>
</svg>
